<?xml version="1.0" encoding="UTF-8"?>
<!-- Generator: visioncortex VTracer + WorkBuddy -->
<svg version="1.1" xmlns="http://www.w3.org/2000/svg" viewBox="138 252 558 152" width="558" height="152">
<path d="M0 0 C11.88 0 23.76 0 36 0 C36.165 0.165 36.165 0.165 37 1 C37 12.55 37 24.1 37 36 C27.1108 39.9557 17.0531 43.4814 7 47 C4.36 48.485 4.36 48.485 -9 56 C-9.66 56.165 -9.66 56.165 -13 57 C-14.98 55.68 -16.96 54.36 -19 53 C-19.33 50.69 -19.66 48.38 -20 46 C-17.36 41.38 -14.72 36.76 -12 32 C-7 21 -7 21 0 0 Z " fill="#FFFFFF" transform="translate(240,260)"/>
<path d="M0 0 C9.9 0 19.8 0 30 0 C31.32 3.3 32.64 6.6 34 10 C36.64 15.61 39.28 21.22 42 27 C42.165 27.825 42.165 27.825 43 32 C41.35 34.64 39.7 37.28 38 40 C32 43 32 43 27 43 C22.05 40.36 17.1 37.72 12 35 C8.04 33.68 4.08 32.36 0 31 C0 20.77 0 10.54 0 0 Z " fill="#FFFFFF" transform="translate(146,275)"/>
<path d="M0 0 C10 0 10 0 15 2 C21.1692 19.2738 27.1996 36.5989 33 54 C36.63 64.23 40.26 74.46 44 85 C47 94 47 94 47 97 C42.71 97 38.42 97 34 97 C22 68.2 22 68.2 22 63 C12.1 63.33 2.2 63.66 -8 64 C-11.3 73.24 -14.6 82.48 -18 92 C-18.66 93.65 -19.32 95.3 -20 97 C-24.29 97 -28.58 97 -33 97 C-32 90 -32 90 -30.8575 86.6995 C-30.5107 85.6977 -30.1639 84.6958 -29.8172 83.6939 C-28.8209 80.8156 -27.8244 77.9374 -26.8276 75.0593 C-24.8097 69.2322 -22.7938 63.4045 -20.7852 57.5742 C-4.7918 11.181 -4.7918 11.181 0 0 Z M6 21 C-3 46 -3 46 -4 50 C-3.67 50.33 -3.34 50.66 -3 51 C3.6 51 10.2 51 17 51 C16 44 16 44 8 22 C7.34 21.67 6.68 21.34 6 21 Z " fill="#FFFFFF" transform="translate(334,294)"/>
<path d="M0 0 C0.66 0.66 1.32 1.32 2 2 C2 9.26 2 16.52 2 24 C5.3 24 8.6 24 12 24 C12 28.29 12 32.58 12 37 C8.7 37 5.4 37 2 37 C2 56.47 2 75.94 2 96 C1.67 96.33 1.34 96.66 1 97 C-2.63 97 -6.26 97 -10 97 C-10.33 96.67 -10.66 96.34 -11 96 C-11.165 86.43 -11.165 86.43 -12 38 C-15.3 37.67 -18.6 37.34 -22 37 C-22 33.04 -22 29.08 -22 25 C-21.67 24.67 -21.34 24.34 -21 24 C-17.7 24 -14.4 24 -11 24 C-11 16.41 -11 8.82 -11 1 C-9 0 -9 0 0 0 Z " fill="#FFFFFF" transform="translate(412,294)"/>
<path d="M0 0 C0.33 0.33 0.66 0.66 1 1 C1 8.59 1 16.18 1 24 C4.3 24 7.6 24 11 24 C11.33 24.33 11.66 24.66 12 25 C12 28.96 12 32.92 12 37 C10.35 37.165 10.35 37.165 2 38 C1.67 57.47 1.34 76.94 1 97 C-2.96 97 -6.92 97 -11 97 C-11.33 77.53 -11.66 58.06 -12 38 C-15.3 37.67 -18.6 37.34 -22 37 C-22 33.04 -22 29.08 -22 25 C-21.67 24.67 -21.34 24.34 -21 24 C-17.7 24 -14.4 24 -11 24 C-11 16.41 -11 8.82 -11 1 C-9 0 -9 0 0 0 Z " fill="#FFFFFF" transform="translate(458,294)"/>
<path d="M0 0 C3.96 0 7.92 0 12 0 C16 4 16 4 24 18 C25.65 20.64 25.65 20.64 34 34 C34.66 34 35.32 34 36 34 C38.805 29.215 38.805 29.215 53 5 C54.65 3.35 56.3 1.7 58 0 C61.96 0 65.92 0 70 0 C70.165 0.33 70.165 0.33 71 2 C68.6622 5.9485 66.3231 9.8963 63.9826 13.8433 C62.8949 15.6777 61.8076 17.5122 60.7212 19.3474 C55.2324 28.6187 49.6862 37.8482 44 47 C47.109 62.5449 60.7936 78.5841 69 92 C69.66 93.65 70.32 95.3 71 97 C66.05 97 61.1 97 56 97 C55.322 95.8863 54.6439 94.7725 53.9453 93.625 C47.6985 83.3733 41.3871 73.1648 35 63 C26.855 73.1813 20.7666 84.8549 14 96 C13.835 96.165 13.835 96.165 13 97 C8.38 97 3.76 97 -1 97 C2.4668 83.1329 13.0957 70.8565 21 59 C22.65 56.03 24.3 53.06 26 50 C21.4896 36.4689 11.9066 24.0464 4.3984 11.8958 C2.5754 8.9443 0.7774 5.9791 -1 3 C-0.67 2.01 -0.34 1.02 0 0 Z " fill="#FFFFFF" transform="translate(614,294)"/>
<path d="M0 0 C1.32 0.33 2.64 0.66 4 1 C4.165 1.165 4.165 1.165 5 2 C5.165 3.98 5.165 3.98 6 14 C10 22 10 22 15 28 C27 34 27 34 38 35 C38.33 35.66 38.33 35.66 40 39 C39.67 39.33 39.67 39.33 38 41 C36.02 41.165 36.02 41.165 26 42 C16.8172 47.5097 11.4984 51.8361 6 61 C5.835 62.98 5.835 62.98 5 73 C4.34 73.99 3.68 74.98 3 76 C1.68 75.67 0.36 75.34 -1 75 C-1.66 70.38 -2.32 65.76 -3 61 C-6 55 -6 55 -13 47 C-23 42 -23 42 -35 41 C-35.66 40.01 -36.32 39.02 -37 38 C-36.34 37.01 -35.68 36.02 -35 35 C-33.185 34.835 -33.185 34.835 -24 34 C-14 30 -14 30 -6 22 C-2 11 -2 11 -1 1 C-0.67 0.67 -0.34 0.34 0 0 Z " fill="#FFFFFF" transform="translate(202,295)"/>
<path d="M0 0 C3.63 1.98 7.26 3.96 11 6 C10.67 6.99 10.34 7.98 10 9 C1 14 1 14 -11 14 C-17 18 -17 18 -19 22 C-19.33 38.83 -19.66 55.66 -20 73 C-23.96 73 -27.92 73 -32 73 C-32.33 72.67 -32.66 72.34 -33 72 C-33 25 -33 25 -31 16 C-25 7 -25 7 -16 1 C-13 0 -13 0 0 0 Z " fill="#FFFFFF" transform="translate(516,318)"/>
<path d="M0 0 C9 4 9 4 14 8 C14.99 8.33 15.98 8.66 17 9 C17 6.36 17 3.72 17 1 C20.96 1 24.92 1 29 1 C29.165 1.165 29.165 1.165 30 2 C30 24.77 30 47.54 30 71 C29.67 71.33 29.34 71.66 29 72 C25.04 72 21.08 72 17 72 C16.835 70.515 16.835 70.515 16 63 C13.03 64.98 10.06 66.96 7 69 C1 72 1 72 -10 73 C-19 71 -19 71 -29 66 C-35.594 59.406 -39.1594 54.6414 -43 46 C-44 33 -44 33 -42 24 C-37 14 -37 14 -29 6 C-15.8 0 -15.8 0 0 0 Z M-20 16 C-27 22 -27 22 -31 32 C-31 41 -31 41 -28 49 C-24 54 -24 54 -17 58 C-11 60 -11 60 -2 60 C8 55 8 55 14 48 C16 42 16 42 16 30 C11 20 11 20 2 14 C-6.1797 11.2734 -12.5229 12.7955 -20 16 Z " fill="#FFFFFF" transform="translate(570,319)"/>
<path d="M0 0 C2.97 0.99 5.94 1.98 9 3 C9.825 4.32 9.825 4.32 14 11 C13 18 13 18 5 34 C4.34 35.65 4.34 35.65 1 44 C-8.57 44 -18.14 44 -28 44 C-28.33 43.67 -28.66 43.34 -29 43 C-29 33.1 -29 23.2 -29 13 C-22.4 10.36 -15.8 7.72 -9 5 C-6.03 3.35 -3.06 1.7 0 0 Z " fill="#FFFFFF" transform="translate(175,347)"/>
<path d="M0 0 C7 1 7 1 18 8 C20.805 8.825 20.805 8.825 35 13 C35 22.24 35 31.48 35 41 C34.34 41.66 33.68 42.32 33 43 C23.43 43 13.86 43 4 43 C2.68 38.05 1.36 33.1 0 28 C-6 17 -6 17 -9 13 C-7 6 -7 6 -2 1 C-1.34 0.67 -0.68 0.34 0 0 Z " fill="#FFFFFF" transform="translate(227,348)"/>
</svg>
